<svg width="1440" height="891" viewBox="0 0 1440 891" fill="none" xmlns="http://www.w3.org/2000/svg">
<g clip-path="url(#clip0_9_32)">
<rect width="1440" height="891" fill="#F5F6FA"/>
<g clip-path="url(#clip1_9_32)">
<line x1="34.8334" y1="-44" x2="34.8333" y2="956" stroke="white"/>
<line x1="75.1667" y1="-44" x2="75.1667" y2="956" stroke="white"/>
<line x1="115.5" y1="-44" x2="115.5" y2="956" stroke="white"/>
<line x1="155.833" y1="-44" x2="155.833" y2="956" stroke="white"/>
<line x1="196.167" y1="-44" x2="196.167" y2="956" stroke="white"/>
<line x1="236.5" y1="-44" x2="236.5" y2="956" stroke="white"/>
<line x1="276.833" y1="-44" x2="276.833" y2="956" stroke="white"/>
<line x1="317.167" y1="-44" x2="317.167" y2="956" stroke="white"/>
<line x1="357.5" y1="-44" x2="357.5" y2="956" stroke="white"/>
<line x1="397.833" y1="-44" x2="397.833" y2="956" stroke="white"/>
<line x1="438.167" y1="-44" x2="438.167" y2="956" stroke="white"/>
<line x1="478.5" y1="-44" x2="478.5" y2="956" stroke="white"/>
<line x1="518.833" y1="-44" x2="518.833" y2="956" stroke="white"/>
<line x1="559.167" y1="-44" x2="559.167" y2="956" stroke="white"/>
<line x1="599.5" y1="-44" x2="599.5" y2="956" stroke="white"/>
<line x1="639.833" y1="-44" x2="639.833" y2="956" stroke="white"/>
<line x1="680.167" y1="-44" x2="680.167" y2="956" stroke="white"/>
<line x1="720.5" y1="-44" x2="720.5" y2="956" stroke="white"/>
<line x1="760.833" y1="-44" x2="760.833" y2="956" stroke="white"/>
<line x1="801.167" y1="-44" x2="801.167" y2="956" stroke="white"/>
<line x1="841.5" y1="-44" x2="841.5" y2="956" stroke="white"/>
<line x1="881.833" y1="-44" x2="881.833" y2="956" stroke="white"/>
<line x1="922.167" y1="-44" x2="922.167" y2="956" stroke="white"/>
<line x1="962.5" y1="-44" x2="962.5" y2="956" stroke="white"/>
<line x1="1002.83" y1="-44" x2="1002.83" y2="956" stroke="white"/>
<line x1="1043.17" y1="-44" x2="1043.17" y2="956" stroke="white"/>
<line x1="1083.5" y1="-44" x2="1083.5" y2="956" stroke="white"/>
<line x1="1123.83" y1="-44" x2="1123.83" y2="956" stroke="white"/>
<line x1="1164.17" y1="-44" x2="1164.17" y2="956" stroke="white"/>
<line x1="1204.5" y1="-44" x2="1204.5" y2="956" stroke="white"/>
<line x1="1244.83" y1="-44" x2="1244.83" y2="956" stroke="white"/>
<line x1="1285.17" y1="-44" x2="1285.17" y2="956" stroke="white"/>
<line x1="1325.5" y1="-44" x2="1325.5" y2="956" stroke="white"/>
<line x1="1365.83" y1="-44" x2="1365.83" y2="956" stroke="white"/>
<line x1="1406.17" y1="-44" x2="1406.17" y2="956" stroke="white"/>
<line x1="1446" y1="5.97445" x2="-5.99988" y2="5.97432" stroke="white"/>
<line x1="1446" y1="55.4488" x2="-5.99988" y2="55.4487" stroke="white"/>
<line x1="1446" y1="104.923" x2="-5.99988" y2="104.923" stroke="white"/>
<line x1="1446" y1="154.397" x2="-5.99988" y2="154.397" stroke="white"/>
<line x1="1446" y1="203.872" x2="-5.99988" y2="203.872" stroke="white"/>
<line x1="1446" y1="253.346" x2="-5.99988" y2="253.346" stroke="white"/>
<line x1="1446" y1="302.82" x2="-5.99988" y2="302.82" stroke="white"/>
<line x1="1446" y1="352.295" x2="-5.99988" y2="352.295" stroke="white"/>
<line x1="1446" y1="401.769" x2="-5.99988" y2="401.769" stroke="white"/>
<line x1="1446" y1="451.243" x2="-5.99988" y2="451.243" stroke="white"/>
<line x1="1446" y1="500.718" x2="-5.99988" y2="500.718" stroke="white"/>
<line x1="1446" y1="550.192" x2="-5.99988" y2="550.192" stroke="white"/>
<line x1="1446" y1="599.667" x2="-5.99988" y2="599.666" stroke="white"/>
<line x1="1446" y1="649.141" x2="-5.99988" y2="649.141" stroke="white"/>
<line x1="1446" y1="698.615" x2="-5.99988" y2="698.615" stroke="white"/>
<line x1="1446" y1="748.09" x2="-5.99988" y2="748.09" stroke="white"/>
<line x1="1446" y1="797.564" x2="-5.99988" y2="797.564" stroke="white"/>
<line x1="1446" y1="847.038" x2="-5.99988" y2="847.038" stroke="white"/>
<rect x="115" y="6.09276" width="40.0812" height="49.1651" fill="#AEFF9F"/>
<rect x="236" y="203.681" width="40.0812" height="49.1651" fill="#AEFF9F"/>
<rect x="357" y="302.939" width="40.0812" height="49.1651" fill="#AEFF9F"/>
<rect x="1284.92" y="55.2579" width="40.0812" height="49.1651" fill="#AEFF9F"/>
<rect x="1163.92" y="153.588" width="40.0812" height="49.1651" fill="#AEFF9F"/>
<path d="M1244.08 302.939H1284.16V352.104H1244.08V302.939Z" fill="#AEFF9F"/>
<rect x="1083" y="401.269" width="40.0812" height="49.1651" fill="#AEFF9F"/>
<rect x="1204" y="500.527" width="40.0812" height="49.1651" fill="#AEFF9F"/>
<rect x="1325" y="599.785" width="40.0812" height="49.1651" fill="#AEFF9F"/>
<rect x="1163.92" y="846.538" width="40.0812" height="49.1651" fill="#AEFF9F"/>
<rect x="115" y="500.527" width="40.0812" height="49.1651" fill="#AEFF9F"/>
<rect x="236" y="599.785" width="40.0812" height="49.1651" fill="#AEFF9F"/>
<rect x="74.9187" y="747.28" width="40.0812" height="49.1651" fill="#AEFF9F"/>
<rect x="357" y="500.527" width="40.0812" height="49.1651" fill="#AEFF9F"/>
<rect x="-6" y="-44" width="1452" height="1001.86" fill="url(#paint0_linear_9_32)" fill-opacity="0.5"/>
</g>
</g>
<defs>
<linearGradient id="paint0_linear_9_32" x1="720" y1="-44" x2="720" y2="1084.94" gradientUnits="userSpaceOnUse">
<stop offset="0.428561" stop-color="#28B30E" stop-opacity="0"/>
<stop offset="1" stop-color="#28B30E"/>
</linearGradient>
<clipPath id="clip0_9_32">
<rect width="1440" height="891" fill="white"/>
</clipPath>
<clipPath id="clip1_9_32">
<rect width="1452" height="1000" fill="white" transform="translate(-6 -44)"/>
</clipPath>
</defs>
</svg>
